<svg width="236" height="30" viewBox="0 0 236 30" fill="none" xmlns="http://www.w3.org/2000/svg">
<path d="M46.8067 20.0643H35.3733V13.6843H45.6067V10.5377H35.3733V4.75767H46.22V1.611H31.6667V23.211H46.3733L46.8067 20.0643Z" fill="#EB1848"/>
<path d="M50.32 22.4577C50.7933 22.8443 51.36 23.131 52.0067 23.3243C52.6533 23.5177 53.3533 23.6177 54.1067 23.6177C55.36 23.6177 56.4067 23.3777 57.24 22.9043C58.0733 22.4243 58.78 21.8443 59.3667 21.151V23.2243H62.68V13.0777C62.68 12.1243 62.5667 11.2643 62.3467 10.5043C62.12 9.74433 61.76 9.091 61.2533 8.551C60.7467 8.011 60.0867 7.60433 59.28 7.31767C58.4667 7.031 57.4733 6.891 56.3 6.891C54.3733 6.891 52.8467 7.24433 51.7267 7.95767C50.6 8.671 49.9 9.79767 49.6133 11.3377L52.7467 11.671C52.9067 10.9777 53.2467 10.451 53.7667 10.0843C54.2867 9.71767 55.0867 9.53767 56.1867 9.53767C57.18 9.53767 57.9467 9.77767 58.5 10.251C59.0467 10.731 59.32 11.5443 59.32 12.7043V13.3777L56.98 13.4977C55.9667 13.5377 54.9733 13.631 54 13.7843C53.0267 13.9377 52.1533 14.2043 51.3867 14.591C50.6133 14.9777 49.9933 15.511 49.52 16.191C49.0467 16.871 48.8067 17.7577 48.8067 18.8577C48.8067 19.671 48.9467 20.3777 49.22 20.9777C49.4933 21.5777 49.8667 22.071 50.3467 22.4577M52.4733 17.5843C52.6067 17.2377 52.8533 16.9443 53.22 16.6977C53.5867 16.451 54.08 16.2577 54.7067 16.1043C55.3333 15.951 56.1333 15.8577 57.1067 15.8177L59.3267 15.7243V17.0377C59.3267 18.3177 58.9133 19.291 58.08 19.951C57.2467 20.611 56.1733 20.9443 54.86 20.9443C53.9667 20.9443 53.3133 20.7443 52.9 20.351C52.4867 19.9577 52.28 19.4243 52.28 18.751C52.28 18.3243 52.3467 17.9377 52.48 17.591" fill="#EB1848"/>
<path d="M75.1867 20.4643C74.6867 20.8177 73.8533 20.9977 72.68 20.9977C71.6267 20.9977 70.76 20.8177 70.08 20.451C69.4 20.0843 68.98 19.3977 68.82 18.3777H65.5067C65.5667 19.3977 65.8067 20.2443 66.22 20.9243C66.6333 21.6043 67.1667 22.151 67.8133 22.571C68.46 22.9843 69.2067 23.2843 70.0467 23.4577C70.8867 23.631 71.7867 23.7177 72.7333 23.7177C74.9667 23.7177 76.6333 23.271 77.7333 22.3777C78.84 21.4843 79.3933 20.3243 79.3933 18.9043C79.3933 18.171 79.3 17.531 79.12 16.9843C78.94 16.4377 78.6333 15.9577 78.2067 15.551C77.78 15.1443 77.2267 14.8043 76.5333 14.531C75.8467 14.2577 74.9933 14.0377 73.98 13.8777L71.8533 13.511C71.3067 13.431 70.8667 13.331 70.5333 13.2243C70.2 13.111 69.9267 12.9777 69.7267 12.811C69.5267 12.651 69.3867 12.4577 69.3133 12.231C69.24 12.011 69.2067 11.751 69.2067 11.471C69.2067 11.2243 69.26 10.9977 69.36 10.771C69.46 10.5443 69.64 10.3443 69.9067 10.1643C70.1667 9.98433 70.5067 9.831 70.92 9.72433C71.3333 9.611 71.86 9.55767 72.5067 9.55767C73.66 9.55767 74.48 9.751 74.9733 10.1377C75.4667 10.5243 75.8333 11.111 76.08 11.9043L79.2133 11.4777C79.0933 10.851 78.8933 10.251 78.62 9.69767C78.3467 9.13767 77.9533 8.65767 77.4333 8.251C76.92 7.84433 76.2533 7.51767 75.44 7.27767C74.6267 7.031 73.6267 6.911 72.4333 6.911C71.48 6.911 70.6067 7.02433 69.8067 7.24433C69.0067 7.471 68.32 7.791 67.74 8.20433C67.16 8.62433 66.7133 9.12433 66.3867 9.711C66.06 10.2977 65.9 10.971 65.9 11.7243C65.9 12.4777 66.0133 13.1177 66.2467 13.6443C66.48 14.171 66.8267 14.6243 67.2933 14.9977C67.76 15.371 68.34 15.6777 69.0333 15.911C69.7333 16.1443 70.5333 16.331 71.44 16.4777L73.5333 16.8443C74.5 17.011 75.1467 17.271 75.46 17.6377C75.7733 18.0043 75.9267 18.451 75.9267 18.9777C75.9267 19.631 75.68 20.131 75.18 20.4843" fill="#EB1848"/>
<path d="M86.66 24.1643C86.3533 24.9577 86.0333 25.511 85.6867 25.8243C85.34 26.1377 84.8667 26.2977 84.26 26.2977C83.9733 26.2977 83.68 26.2777 83.38 26.2377C83.0733 26.1977 82.7933 26.1243 82.5267 26.0243L81.8867 28.6777C82.4133 28.8377 82.9 28.9577 83.3467 29.031C83.7933 29.1043 84.28 29.1377 84.8067 29.1377C85.5733 29.1377 86.2267 29.031 86.7533 28.8177C87.28 28.6043 87.7333 28.291 88.12 27.871C88.5067 27.451 88.8467 26.9443 89.14 26.331C89.4333 25.7243 89.74 25.011 90.0667 24.1977L96.6933 7.37767H92.9267L88.9467 18.8043L84.6 7.37767H80.5867L87.2467 22.6777L86.6667 24.171L86.66 24.1643Z" fill="#EB1848"/>
<path d="M98.8867 1.35767H105.84C107.413 1.35767 108.7 1.52433 109.713 1.85767C110.72 2.191 111.513 2.63767 112.087 3.20433C112.66 3.771 113.06 4.431 113.28 5.18433C113.5 5.93767 113.613 6.74433 113.613 7.591C113.613 8.43767 113.5 9.32433 113.267 10.131C113.033 10.9377 112.627 11.6443 112.04 12.251C111.453 12.8577 110.66 13.3377 109.653 13.6843C108.647 14.0377 107.353 14.211 105.78 14.211H100.7V22.951H98.8867V1.35767ZM105.813 12.611C107.027 12.611 108.013 12.4977 108.78 12.2643C109.547 12.031 110.153 11.7043 110.593 11.2843C111.033 10.8577 111.34 10.3443 111.5 9.74433C111.66 9.13767 111.74 8.451 111.74 7.68433C111.74 6.87767 111.647 6.18433 111.467 5.59767C111.287 5.011 110.967 4.52433 110.513 4.131C110.06 3.73767 109.447 3.44433 108.687 3.251C107.92 3.05767 106.953 2.96433 105.78 2.96433H100.7V12.611H105.813Z" fill="#ED1747"/>
<path d="M117.24 7.25767H119.04V9.86433C119.68 8.95767 120.413 8.251 121.24 7.75767C122.067 7.26433 122.947 7.011 123.873 7.011C124.1 7.011 124.313 7.011 124.507 7.02433C124.7 7.03767 124.913 7.05767 125.14 7.10433L124.92 8.811C124.547 8.751 124.207 8.71767 123.9 8.71767C123.36 8.71767 122.813 8.81767 122.26 9.011C121.7 9.211 121.173 9.54433 120.68 10.0177C120.207 10.431 119.813 10.931 119.5 11.5177C119.187 12.1043 119.033 12.8043 119.033 13.611V23.2177H117.233V7.25767H117.24Z" fill="#ED1747"/>
<path d="M134.347 23.7177C133.167 23.7177 132.12 23.5243 131.2 23.131C130.28 22.7377 129.507 22.1777 128.873 21.4443C128.24 20.711 127.76 19.831 127.413 18.791C127.073 17.7577 126.9 16.6043 126.9 15.3177C126.9 14.031 127.08 12.8377 127.44 11.7843C127.8 10.731 128.307 9.831 128.96 9.091C129.613 8.34433 130.4 7.771 131.333 7.371C132.267 6.971 133.307 6.76433 134.467 6.76433C135.627 6.76433 136.667 6.95767 137.6 7.351C138.533 7.74433 139.313 8.30433 139.953 9.03767C140.593 9.771 141.087 10.6577 141.427 11.6843C141.767 12.7177 141.94 13.8643 141.94 15.1243C141.94 16.3843 141.767 17.6043 141.413 18.6577C141.06 19.711 140.56 20.6177 139.907 21.371C139.253 22.1243 138.46 22.7043 137.52 23.1043C136.58 23.5043 135.52 23.711 134.34 23.711L134.347 23.7177ZM134.407 22.171C135.42 22.171 136.273 21.991 136.98 21.631C137.68 21.271 138.26 20.7777 138.713 20.1577C139.167 19.5377 139.5 18.8043 139.707 17.9577C139.913 17.111 140.02 16.191 140.02 15.1977C140.02 14.2043 139.913 13.351 139.707 12.5177C139.5 11.6777 139.167 10.951 138.713 10.331C138.26 9.711 137.68 9.21767 136.98 8.85767C136.28 8.49767 135.42 8.31766 134.407 8.31766C133.393 8.31766 132.56 8.49767 131.847 8.85767C131.133 9.21767 130.553 9.711 130.113 10.331C129.667 10.951 129.34 11.6777 129.14 12.5177C128.933 13.3577 128.827 14.2577 128.827 15.231C128.827 16.2043 128.927 17.111 129.14 17.9577C129.347 18.8043 129.673 19.5377 130.113 20.1577C130.56 20.7777 131.133 21.271 131.847 21.631C132.56 21.991 133.413 22.171 134.407 22.171Z" fill="#ED1747"/>
<path d="M145.507 7.25767H147.307V9.64433C148.027 8.73767 148.827 8.031 149.693 7.52433C150.56 7.01767 151.613 6.76433 152.853 6.76433C154.093 6.76433 155.047 6.97767 155.907 7.39767C156.767 7.82433 157.48 8.40433 158.047 9.151C158.613 9.89767 159.04 10.771 159.32 11.7843C159.6 12.7977 159.74 13.891 159.74 15.071C159.74 16.4377 159.567 17.651 159.227 18.711C158.887 19.7777 158.407 20.6777 157.787 21.4243C157.167 22.171 156.42 22.7377 155.54 23.131C154.66 23.5243 153.673 23.7177 152.58 23.7177C151.607 23.7177 150.673 23.5243 149.773 23.131C148.873 22.7377 148.053 22.0443 147.307 21.051V29.231H145.507V7.25767ZM147.24 15.8777C147.24 16.5777 147.273 17.1977 147.347 17.7243C147.42 18.251 147.54 18.7243 147.72 19.1377C147.893 19.551 148.12 19.9177 148.387 20.2377C148.653 20.5577 148.987 20.851 149.38 21.1243C149.853 21.4977 150.34 21.7643 150.84 21.931C151.333 22.0977 151.907 22.1777 152.547 22.1777C153.313 22.1777 154.013 22.051 154.653 21.791C155.293 21.531 155.847 21.1243 156.313 20.5643C156.78 20.0043 157.147 19.2777 157.413 18.3777C157.68 17.4777 157.813 16.391 157.813 15.111C157.813 13.831 157.66 12.7243 157.367 11.8577C157.067 10.991 156.68 10.291 156.207 9.76433C155.733 9.23767 155.193 8.86433 154.593 8.651C153.993 8.431 153.407 8.32433 152.827 8.32433C152.187 8.32433 151.607 8.39767 151.093 8.54433C150.58 8.691 150.06 8.95767 149.547 9.351C148.82 9.891 148.26 10.5643 147.86 11.3843C147.46 12.1977 147.253 13.2377 147.253 14.4977V15.891L147.24 15.8777Z" fill="#ED1747"/>
<path d="M176.627 19.0377C176.38 20.4243 175.72 21.551 174.64 22.4177C173.567 23.2843 172.033 23.7177 170.053 23.7177C167.76 23.7177 165.98 22.9777 164.707 21.5043C163.433 20.0243 162.8 17.9977 162.8 15.411C162.8 14.0043 162.98 12.7643 163.34 11.691C163.7 10.6177 164.207 9.711 164.86 8.97767C165.513 8.24433 166.273 7.691 167.153 7.31767C168.033 6.94433 169 6.75767 170.053 6.75767C171.293 6.75767 172.347 6.95767 173.213 7.36433C174.08 7.76433 174.787 8.31767 175.333 9.00433C175.88 9.69767 176.28 10.5177 176.527 11.471C176.773 12.4243 176.9 13.4443 176.9 14.5377V15.6843H164.627C164.627 16.591 164.74 17.4443 164.967 18.2443C165.193 19.0377 165.533 19.731 165.987 20.3243C166.44 20.911 167.007 21.3777 167.693 21.7177C168.38 22.0577 169.16 22.231 170.047 22.231C170.853 22.231 171.533 22.151 172.093 21.9977C172.653 21.8443 173.113 21.6177 173.487 21.331C173.86 21.0443 174.153 20.7043 174.373 20.3243C174.593 19.9443 174.76 19.511 174.887 19.0377H176.62H176.627ZM175.047 14.1377C175.047 13.271 174.953 12.4777 174.767 11.751C174.58 11.031 174.293 10.4043 173.9 9.87767C173.507 9.351 172.993 8.94433 172.347 8.651C171.707 8.36433 170.94 8.21767 170.053 8.21767C168.507 8.21767 167.267 8.70433 166.333 9.67767C165.4 10.651 164.847 12.1377 164.66 14.1377H175.04H175.047Z" fill="#ED1747"/>
<path d="M180.373 7.25767H182.173V9.86433C182.813 8.95767 183.547 8.251 184.373 7.75767C185.2 7.26433 186.08 7.011 187.007 7.011C187.233 7.011 187.447 7.011 187.64 7.02433C187.833 7.03767 188.047 7.05767 188.273 7.10433L188.053 8.811C187.68 8.751 187.34 8.71767 187.033 8.71767C186.493 8.71767 185.947 8.81767 185.393 9.011C184.833 9.211 184.307 9.54433 183.813 10.0177C183.34 10.431 182.947 10.931 182.633 11.5177C182.32 12.1043 182.167 12.8043 182.167 13.611V23.2177H180.367V7.25767H180.373Z" fill="#ED1747"/>
<path d="M191.44 8.74433H188.96V7.25767H191.44V2.85767H193.24V7.25767H197.767V8.74433H193.24V19.191C193.24 19.9777 193.407 20.6443 193.733 21.191C194.067 21.7377 194.64 22.011 195.467 22.011C196.007 22.011 196.46 21.971 196.833 21.8843C197.207 21.8043 197.533 21.711 197.827 21.6043L198.2 23.0643C197.887 23.191 197.513 23.3043 197.067 23.4043C196.62 23.5043 196.04 23.5577 195.313 23.5577C194.407 23.5577 193.693 23.4043 193.173 23.091C192.66 22.7777 192.267 22.371 192.013 21.8643C191.753 21.3577 191.593 20.7777 191.533 20.111C191.473 19.451 191.44 18.7577 191.44 18.0377V8.73767V8.74433Z" fill="#ED1747"/>
<path d="M200.48 1.35767H202.473V3.991H200.48V1.35767ZM200.6 7.37767H202.353V22.951H200.6V7.37767Z" fill="#ED1747"/>
<path d="M219.86 19.0377C219.613 20.4243 218.953 21.551 217.873 22.4177C216.8 23.2843 215.267 23.7177 213.287 23.7177C210.993 23.7177 209.213 22.9777 207.94 21.5043C206.667 20.0243 206.033 17.9977 206.033 15.411C206.033 14.0043 206.213 12.7643 206.573 11.691C206.933 10.6177 207.44 9.711 208.093 8.97767C208.747 8.24433 209.507 7.691 210.387 7.31767C211.267 6.94433 212.233 6.75767 213.287 6.75767C214.527 6.75767 215.58 6.95767 216.447 7.36433C217.313 7.76433 218.02 8.31767 218.567 9.00433C219.113 9.69767 219.513 10.5177 219.76 11.471C220.007 12.4243 220.133 13.4443 220.133 14.5377V15.6843H207.86C207.86 16.591 207.973 17.4443 208.2 18.2443C208.427 19.0377 208.767 19.731 209.22 20.3243C209.673 20.911 210.24 21.3777 210.927 21.7177C211.613 22.0577 212.393 22.231 213.28 22.231C214.087 22.231 214.767 22.151 215.327 21.9977C215.887 21.8443 216.347 21.6177 216.72 21.331C217.093 21.0443 217.387 20.7043 217.607 20.3243C217.827 19.9443 217.993 19.511 218.12 19.0377H219.853H219.86ZM218.28 14.1377C218.28 13.271 218.187 12.4777 218 11.751C217.813 11.031 217.527 10.4043 217.133 9.87767C216.74 9.351 216.227 8.94433 215.58 8.651C214.94 8.36433 214.173 8.21767 213.287 8.21767C211.74 8.21767 210.5 8.70433 209.567 9.67767C208.633 10.651 208.08 12.1377 207.893 14.1377H218.273H218.28Z" fill="#ED1747"/>
<path d="M224.573 18.791C224.8 20.031 225.327 20.911 226.153 21.4243C226.98 21.9443 228.16 22.1977 229.687 22.1977C231.213 22.1977 232.333 21.911 232.973 21.331C233.613 20.751 233.933 20.031 233.933 19.1643C233.933 18.791 233.893 18.4443 233.807 18.1243C233.727 17.8043 233.567 17.511 233.327 17.2443C233.087 16.9777 232.747 16.751 232.307 16.5643C231.86 16.3777 231.287 16.2243 230.587 16.0977L228.633 15.791C227.787 15.6443 227.027 15.471 226.353 15.2643C225.68 15.0577 225.113 14.7843 224.647 14.4443C224.18 14.1043 223.833 13.6777 223.593 13.171C223.353 12.6643 223.24 12.0377 223.24 11.2977C223.24 10.5977 223.393 9.95767 223.707 9.391C224.02 8.82433 224.44 8.351 224.98 7.96433C225.52 7.58433 226.153 7.291 226.887 7.07767C227.62 6.871 228.413 6.771 229.26 6.771C230.353 6.771 231.267 6.87767 232 7.09767C232.733 7.31767 233.333 7.611 233.8 7.98433C234.267 8.35767 234.627 8.791 234.887 9.28433C235.147 9.77767 235.347 10.3043 235.493 10.8643L233.853 11.2043C233.687 10.731 233.5 10.311 233.28 9.951C233.06 9.591 232.787 9.291 232.46 9.051C232.127 8.811 231.713 8.631 231.22 8.511C230.727 8.38433 230.107 8.32433 229.36 8.32433C228.533 8.32433 227.84 8.40433 227.28 8.55767C226.72 8.711 226.273 8.92433 225.933 9.191C225.593 9.45767 225.347 9.771 225.207 10.1177C225.06 10.471 224.987 10.831 224.987 11.2043C224.987 11.5777 225.027 11.911 225.113 12.211C225.193 12.511 225.36 12.771 225.607 13.0043C225.853 13.231 226.2 13.431 226.647 13.591C227.093 13.7577 227.673 13.8977 228.4 14.0243L230.847 14.4243C232.52 14.711 233.773 15.2177 234.6 15.9243C235.427 16.6377 235.84 17.7243 235.84 19.191C235.84 19.811 235.713 20.3977 235.453 20.9577C235.193 21.5177 234.813 21.9977 234.307 22.3977C233.8 22.7977 233.167 23.1243 232.4 23.3577C231.633 23.5977 230.76 23.711 229.767 23.711C228.773 23.711 227.9 23.6177 227.087 23.431C226.273 23.2443 225.56 22.9577 224.967 22.5643C224.367 22.171 223.88 21.6643 223.507 21.0443C223.133 20.4243 222.907 19.671 222.827 18.7843H224.593L224.573 18.791Z" fill="#ED1747"/>
<path d="M6.78 13.051V16.1243H3.07333V22.291C3.07333 22.771 2.68667 23.1577 2.20667 23.1577H0.866667C0.386667 23.1577 0 22.771 0 22.291V16.0243C0 14.3777 1.33333 13.051 2.98 13.051H6.78667H6.78Z" fill="#00568B"/>
<path d="M17.34 23.1577H16C15.52 23.1577 15.1333 22.771 15.1333 22.291V4.65767C15.1133 4.65767 15.08 4.65767 15.0533 4.65767H8.22C8.22 4.65767 8.16 4.65767 8.14 4.65767V22.2977C8.14 22.7777 7.75333 23.1643 7.27333 23.1643H5.93333C5.45333 23.1643 5.06667 22.7777 5.06667 22.2977V4.65767C5.06667 2.84433 6.36667 1.571 8.22667 1.571H15.06C16.92 1.571 18.22 2.83767 18.22 4.65767V22.291C18.22 22.771 17.8333 23.1577 17.3533 23.1577H17.34Z" fill="#E9224A"/>
<path d="M22.3533 23.1577H21.0133C20.5333 23.1577 20.1467 22.771 20.1467 22.291V10.731C20.1467 10.6843 20.1467 10.6443 20.14 10.6243C20.12 10.6243 20.1 10.6243 20.0733 10.6243H13.2733C13.2733 10.6243 13.2267 10.6243 13.2067 10.6243C13.2067 10.651 13.2 10.6843 13.2 10.731V22.291C13.2 22.771 12.8133 23.1577 12.3333 23.1577H10.9933C10.5133 23.1577 10.1267 22.771 10.1267 22.291V10.731C10.1267 8.88433 11.4533 7.54433 13.2733 7.54433H20.0733C21.9 7.54433 23.22 8.88433 23.22 10.731V22.291C23.22 22.771 22.8333 23.1577 22.3533 23.1577Z" fill="#3DB0E4"/>
</svg>
