<?xml version="1.0" encoding="utf-8"?>
<!-- Generator: Adobe Illustrator 23.0.1, SVG Export Plug-In . SVG Version: 6.00 Build 0)  -->
<svg version="1.1" id="Layer_1" xmlns="http://www.w3.org/2000/svg" xmlns:xlink="http://www.w3.org/1999/xlink" x="0px" y="0px"
	 viewBox="0 0 88.3 25.2" style="enable-background:new 0 0 95.1 25.2;" xml:space="preserve">
<style type="text/css">
	.st0{fill:#EA1F48;}
	.st1{fill:#4A4A4A;}
</style>
<g id="EasyID-colour" transform="translate(-108.736 -109.271)">
	<path id="Path_1" class="st0" d="M121.5,126v3h-12.8v-19.7h12.8v3h-9.2v5.3h8.7v2.8h-8.7v5.6H121.5z M130.3,126.6
		c0.9,0,1.9-0.3,2.6-0.9c0.7-0.5,1.1-1.4,1-2.2v-1.1l-3.4,0.2c-1.9,0.1-2.8,0.8-2.8,2.1c0,0.6,0.3,1.1,0.7,1.4
		C128.9,126.4,129.6,126.6,130.3,126.6z M129.3,129.2c-1.3,0.1-2.6-0.4-3.6-1.2c-0.9-0.8-1.5-2-1.4-3.2c-0.1-1.2,0.5-2.4,1.5-3.1
		c1.3-0.8,2.8-1.3,4.3-1.3l3.9-0.2V119c0-0.7-0.2-1.4-0.8-1.8c-0.6-0.5-1.4-0.7-2.1-0.6c-0.7,0-1.4,0.2-1.9,0.5
		c-0.5,0.3-0.8,0.9-1,1.5H125c0-1.3,0.7-2.6,1.8-3.4c1.3-0.9,2.8-1.4,4.4-1.3c1.6-0.1,3.2,0.4,4.5,1.3c1.1,0.9,1.7,2.2,1.7,3.6V129
		H134v-2.4h-0.1c-0.4,0.8-1.1,1.5-1.9,1.9C131.2,128.9,130.3,129.2,129.3,129.2L129.3,129.2z M140.5,118.4c0-1.3,0.6-2.5,1.7-3.3
		c1.3-0.9,2.8-1.3,4.3-1.2c1.5-0.1,3,0.4,4.2,1.3c1.1,0.8,1.7,2,1.7,3.3h-3.2c0-0.6-0.3-1.2-0.8-1.5c-0.6-0.4-1.3-0.6-2-0.6
		c-0.7,0-1.3,0.1-1.9,0.5c-0.5,0.3-0.7,0.8-0.7,1.3c0,0.8,0.7,1.4,2.2,1.8l2.6,0.6c1.2,0.2,2.3,0.7,3.2,1.4c0.7,0.7,1,1.6,0.9,2.6
		c0,1.3-0.6,2.6-1.8,3.4c-1.3,0.9-3,1.4-4.6,1.3c-1.6,0.1-3.1-0.4-4.4-1.3c-1.1-0.8-1.8-2-1.9-3.4h3.3c0.1,0.6,0.4,1.2,0.9,1.6
		c0.6,0.4,1.4,0.6,2.1,0.5c0.7,0,1.4-0.1,2.1-0.5c0.5-0.3,0.8-0.8,0.8-1.3c0-0.4-0.2-0.8-0.5-1c-0.5-0.3-1-0.6-1.6-0.7l-2.7-0.7
		C141.9,121.9,140.5,120.5,140.5,118.4L140.5,118.4z M157.3,134.4c-0.4,0-0.9,0-1.3-0.1v-2.7c0.3,0,0.6,0.1,0.9,0.1
		c0.6,0,1.2-0.1,1.7-0.5c0.5-0.4,0.8-0.9,1-1.5l0.2-0.7l-5.3-15h3.7l3.6,12h0.1l3.6-12h3.6l-5.4,15.5c-0.4,1.5-1.2,2.8-2.3,3.8
		C160.1,134.1,158.7,134.5,157.3,134.4z"/>
	<path id="Path_2" class="st1" d="M176.4,129h-2.5v-19.7h2.5V129z M180.8,109.3h6.6c2.5-0.1,5,0.8,6.9,2.6c1.7,2,2.6,4.6,2.5,7.3
		c0.2,2.7-0.7,5.3-2.5,7.3c-1.8,1.8-4.3,2.8-6.9,2.6h-6.6V109.3z M183.3,111.5v15.3h4c1.9,0.1,3.8-0.6,5.2-2
		c1.3-1.6,1.9-3.6,1.8-5.7c0.1-2.1-0.5-4.1-1.8-5.7c-1.3-1.4-3.2-2.1-5.2-2L183.3,111.5z"/>
</g>
</svg>
