<?xml version="1.0" encoding="utf-8"?>
<!-- Generator: Adobe Illustrator 23.0.6, SVG Export Plug-In . SVG Version: 6.00 Build 0)  -->
<svg version="1.1" id="Layer_1" xmlns="http://www.w3.org/2000/svg" xmlns:xlink="http://www.w3.org/1999/xlink" x="0px" y="0px"
	 viewBox="0 0 249.47 63.14" style="enable-background:new 0 0 249.47 63.14;" xml:space="preserve">
<style type="text/css">
	.st0{fill-rule:evenodd;clip-rule:evenodd;fill:#00000A;}
</style>
<path class="st0" d="M144.16,12.94c-1.56-1.86-1.56-1.86-1.56-1.86c-0.23-0.28-0.49-0.56-0.75-0.81c-0.95-0.88-2.05-1.58-3.26-2.07
	c-0.91-0.37-1.88-0.6-2.86-0.7c-0.56-0.05-0.56-0.05-0.56-0.05s-0.19-0.02-0.44-0.02c-0.26,0-0.65,0.02-0.65,0.02
	c-0.53,0.05-0.53,0.05-0.53,0.05c-0.98,0.11-1.95,0.33-2.88,0.7c-1.21,0.49-2.3,1.19-3.24,2.07c-0.26,0.25-0.53,0.53-0.77,0.81
	c-1.56,1.86-1.56,1.86-1.56,1.86c0-10.63,0-10.63,0-10.63c19.06,0,19.06,0,19.06,0V12.94z M134.72,6.91c0.3,0,0.51,0.02,0.51,0.02
	C135.76,7,135.76,7,135.76,7c1.05,0.11,2.09,0.33,3.05,0.72c1.28,0.51,2.44,1.26,3.42,2.17c0.28,0.28,0.54,0.58,0.81,0.88
	c0.56,0.67,0.56,0.67,0.56,0.67c0-8.58,0-8.58,0-8.58c-17.92,0-17.92,0-17.92,0c0,8.58,0,8.58,0,8.58c0.54-0.67,0.54-0.67,0.54-0.67
	c0.26-0.3,0.53-0.6,0.81-0.88c1-0.91,2.16-1.67,3.44-2.17c0.96-0.39,1.98-0.61,3.03-0.72c0.53-0.07,0.53-0.07,0.53-0.07
	S134.44,6.91,134.72,6.91 M105.35,12.94c0-10.63,0-10.63,0-10.63c19.03,0,19.03,0,19.03,0c0,10.63,0,10.63,0,10.63
	c-1.56-1.86-1.56-1.86-1.56-1.86c-0.23-0.28-0.47-0.56-0.75-0.81c-0.95-0.88-2.02-1.58-3.23-2.07c-0.93-0.37-1.91-0.6-2.89-0.7
	c-0.53-0.05-0.53-0.05-0.53-0.05s-0.42-0.02-0.61-0.02c-0.18,0-0.49,0.02-0.49,0.02c-0.53,0.05-0.53,0.05-0.53,0.05
	c-0.98,0.11-1.96,0.33-2.89,0.7c-1.21,0.49-2.28,1.19-3.23,2.07c-0.28,0.25-0.53,0.53-0.75,0.81L105.35,12.94z M114.8,6.91
	c0.21,0,0.65,0.02,0.65,0.02C115.99,7,115.99,7,115.99,7c1.05,0.11,2.07,0.33,3.05,0.72c1.28,0.51,2.42,1.26,3.4,2.17
	c0.28,0.28,0.58,0.58,0.81,0.88c0.58,0.67,0.58,0.67,0.58,0.67c0-8.58,0-8.58,0-8.58c-17.94,0-17.94,0-17.94,0c0,8.58,0,8.58,0,8.58
	c0.56-0.67,0.56-0.67,0.56-0.67c0.25-0.3,0.54-0.6,0.82-0.88c0.98-0.91,2.12-1.67,3.4-2.17c0.98-0.39,1.98-0.61,3.03-0.72
	c0.53-0.07,0.53-0.07,0.53-0.07S114.59,6.91,114.8,6.91 M126.29,9.77c0-6.31,0-6.31,0-6.31c16.7,0,16.7,0,16.7,0
	c0,6.31,0,6.31,0,6.31c-0.49-0.46-0.49-0.46-0.49-0.46c-1-0.89-2.14-1.61-3.44-2.14c-0.86-0.33-1.79-0.6-2.7-0.72
	c-0.02,0-0.02,0-0.02,0s-0.68-0.14-1.65-0.14c-0.89,0-1.75,0.14-1.77,0.14c-0.93,0.12-1.84,0.39-2.7,0.72
	c-1.3,0.53-2.44,1.25-3.45,2.14L126.29,9.77z M136.44,5.95c0.96,0.12,1.93,0.39,2.82,0.75c1.14,0.46,2.19,1.09,3.14,1.82
	c0-4.54,0-4.54,0-4.54c-15.56,0-15.56,0-15.56,0c0,4.54,0,4.54,0,4.54c0.95-0.74,2-1.37,3.14-1.82c0.91-0.37,1.88-0.63,2.84-0.75
	c0.04-0.02,0.91-0.16,1.86-0.16C135.65,5.79,136.36,5.93,136.44,5.95 M123.2,9.77c-0.47-0.46-0.47-0.46-0.47-0.46
	c-1-0.89-2.16-1.61-3.44-2.14c-0.88-0.33-1.77-0.6-2.72-0.72c-0.02,0-1.12-0.14-1.84-0.14c-0.77,0-1.58,0.14-1.58,0.14
	c-0.95,0.12-1.84,0.39-2.72,0.72C109.15,7.7,108,8.42,107,9.31c-0.47,0.46-0.47,0.46-0.47,0.46c0-6.31,0-6.31,0-6.31
	c16.68,0,16.68,0,16.68,0V9.77z M107.08,3.98c0,4.54,0,4.54,0,4.54c0.93-0.74,1.98-1.37,3.12-1.82c0.93-0.37,1.88-0.63,2.86-0.75
	c0.02-0.02,0.86-0.18,1.67-0.18c0.77,0,1.88,0.16,1.93,0.18l0,0c0.98,0.12,1.93,0.39,2.86,0.75c1.14,0.46,2.19,1.09,3.12,1.82
	c0-4.54,0-4.54,0-4.54H107.08z"/>
<path class="st0" d="M148.42,34.06c-7.63,0-7.63,0-7.63,0c0-3.96,0-3.96,0-3.96c1.58,0,1.58,0,1.58,0
	c0.02-13.98,0.02-13.98,0.02-13.98c-0.46-3.67-3.81-6.49-7.77-6.49c-3.95,0-7.3,2.82-7.77,6.52c0,13.94,0,13.94,0,13.94
	c1.58,0,1.58,0,1.58,0c0,3.96,0,3.96,0,3.96c-7.61,0-7.61,0-7.61,0c0-3.96,0-3.96,0-3.96c1.82,0,1.82,0,1.82,0
	c0-13.98,0-13.98,0-13.98c-0.47-3.67-3.81-6.49-7.77-6.49s-7.3,2.82-7.79,6.52c0.05,13.94,0.05,13.94,0.05,13.94
	c1.58,0,1.58,0,1.58,0c0,3.96,0,3.96,0,3.96c-7.65,0-7.65,0-7.65,0c0-3.96,0-3.96,0-3.96c1.84,0,1.84,0,1.84,0
	c0-26.13,0-26.13,0-26.13c-2.58,0-2.58,0-2.58,0c0-3.96,0-3.96,0-3.96c48.82,0,48.82,0,48.82,0c0,3.96,0,3.96,0,3.96
	c-2.56,0-2.56,0-2.56,0c0,26.13,0,26.13,0,26.13c1.82,0,1.82,0,1.82,0V34.06z M141.37,33.53c6.51,0,6.51,0,6.51,0
	c0-2.93,0-2.93,0-2.93c-1.84,0-1.84,0-1.84,0c0-27.17,0-27.17,0-27.17c2.56,0,2.56,0,2.56,0c0-2.93,0-2.93,0-2.93
	c-47.7,0-47.7,0-47.7,0c0,2.93,0,2.93,0,2.93c2.56,0,2.56,0,2.56,0c0,27.17,0,27.17,0,27.17c-0.28,0-0.28,0-0.28,0
	c-1.54,0-1.54,0-1.54,0c0,2.93,0,2.93,0,2.93c6.51,0,6.51,0,6.51,0c0-2.93,0-2.93,0-2.93c-1.58,0-1.58,0-1.58,0
	c-0.02-14.49-0.02-14.49-0.02-14.49c0.51-4.02,4.09-7,8.33-7s7.82,2.98,8.33,6.98c0,14.5,0,14.5,0,14.5c-1.84,0-1.84,0-1.84,0
	c0,2.93,0,2.93,0,2.93c6.51,0,6.51,0,6.51,0c0-2.93,0-2.93,0-2.93c-1.58,0-1.58,0-1.58,0c0-0.25,0-0.25,0-0.25
	c0-14.24,0-14.24,0-14.24c0.51-4.02,4.1-7,8.33-7c4.24,0,7.84,2.98,8.35,6.98c-0.05,14.5-0.05,14.5-0.05,14.5c-1.54,0-1.54,0-1.54,0
	V33.53z"/>
<path class="st0" d="M147.25,32.94c-5.26,0-5.26,0-5.26,0c0-1.74,0-1.74,0-1.74c1.6,0,1.6,0,1.6,0c0-15.13,0-15.13,0-15.13
	c-0.23-2.07-1.28-3.96-2.93-5.35c-1.67-1.4-3.79-2.17-6.03-2.17c-2.21,0-4.35,0.77-6.02,2.17c-1.63,1.39-2.68,3.28-2.93,5.35
	c0,15.13,0,15.13,0,15.13c1.58,0,1.58,0,1.58,0c0,1.74,0,1.74,0,1.74c-5.26,0-5.26,0-5.26,0c0-1.74,0-1.74,0-1.74
	c1.84,0,1.84,0,1.84,0c0-15.13,0-15.13,0-15.13c-0.26-2.07-1.32-3.96-2.96-5.35c-1.65-1.4-3.79-2.17-6-2.17
	c-2.23,0-4.37,0.77-6.02,2.17c-1.65,1.39-2.7,3.28-2.96,5.35c0,15.13,0,15.13,0,15.13c1.6,0,1.6,0,1.6,0c0,1.74,0,1.74,0,1.74
	c-5.26,0-5.26,0-5.26,0c0-1.74,0-1.74,0-1.74c1.84,0,1.84,0,1.84,0c0-28.34,0-28.34,0-28.34c-2.56,0-2.56,0-2.56,0
	c0-1.74,0-1.74,0-1.74c46.49,0,46.49,0,46.49,0c0,1.74,0,1.74,0,1.74c-2.58,0-2.58,0-2.58,0c0,28.34,0,28.34,0,28.34
	c1.82,0,1.82,0,1.82,0V32.94z M142.56,32.39c4.14,0,4.14,0,4.14,0c0-0.65,0-0.65,0-0.65c-1.84,0-1.84,0-1.84,0c0-0.26,0-0.26,0-0.26
	c0-29.17,0-29.17,0-29.17c2.56,0,2.56,0,2.56,0c0-0.65,0-0.65,0-0.65c-45.37,0-45.37,0-45.37,0c0,0.65,0,0.65,0,0.65
	c2.58,0,2.58,0,2.58,0c0,29.43,0,29.43,0,29.43c-1.82,0-1.82,0-1.82,0c0,0.65,0,0.65,0,0.65c4.14,0,4.14,0,4.14,0
	c0-0.65,0-0.65,0-0.65c-1.6,0-1.6,0-1.6,0c0-15.75,0-15.75,0-15.75c0.26-2.17,1.39-4.19,3.1-5.66c1.79-1.49,4.05-2.31,6.42-2.31
	s4.61,0.82,6.4,2.31c1.72,1.47,2.84,3.49,3.1,5.66c0,0.07,0,0.07,0,0.07c0,15.68,0,15.68,0,15.68c-1.84,0-1.84,0-1.84,0
	c0,0.65,0,0.65,0,0.65c4.14,0,4.14,0,4.14,0c0-0.65,0-0.65,0-0.65c-1.58,0-1.58,0-1.58,0c0-15.75,0-15.75,0-15.75
	c0.3-2.17,1.39-4.19,3.14-5.66c1.75-1.49,4.03-2.31,6.38-2.31c2.37,0,4.65,0.82,6.4,2.31c1.75,1.47,2.86,3.49,3.14,5.66
	c0,0.07,0,0.07,0,0.07c0,15.68,0,15.68,0,15.68c-1.6,0-1.6,0-1.6,0V32.39z"/>
<path class="st0" d="M4.81,47.46c-4.81,0-4.81,0-4.81,0C0,48,0,48,0,48c0.42,0,0.42,0,0.42,0c0.81,0,1.33,0.05,1.54,0.19
	c0.25,0.14,0.4,0.39,0.49,0.74c0.07,0.37,0.11,1.16,0.11,2.37c0,6.7,0,6.7,0,6.7c0,1.28-0.04,2.14-0.16,2.6
	c-0.09,0.47-0.35,0.88-0.75,1.19C1.23,62.12,0.68,62.31,0,62.33c0,0.53,0,0.53,0,0.53c5.65,0,5.65,0,5.65,0c0-0.53,0-0.53,0-0.53
	c-0.74-0.05-1.28-0.25-1.7-0.58c-0.4-0.32-0.63-0.72-0.72-1.17c-0.07-0.44-0.12-1.28-0.12-2.51c0-9,0-9,0-9
	c6.31,13.78,6.31,13.78,6.31,13.78c0.56,0,0.56,0,0.56,0c6.24-13.78,6.24-13.78,6.24-13.78c0,9.79,0,9.79,0,9.79
	c0,1.28-0.02,2.1-0.11,2.44c-0.07,0.37-0.25,0.63-0.51,0.79c-0.26,0.16-0.72,0.25-1.39,0.25c-0.56,0-0.56,0-0.56,0
	c0,0.53,0,0.53,0,0.53c7.56,0,7.56,0,7.56,0c0-0.53,0-0.53,0-0.53c-0.7,0-0.7,0-0.7,0c-0.72,0-1.21-0.09-1.46-0.26
	c-0.26-0.19-0.4-0.47-0.47-0.84c-0.07-0.37-0.09-1.16-0.09-2.37c0-7.56,0-7.56,0-7.56c0-1.28,0.04-2.09,0.12-2.42
	c0.07-0.35,0.25-0.58,0.49-0.68c0.25-0.14,0.74-0.19,1.51-0.19c0.6,0,0.6,0,0.6,0c0-0.54,0-0.54,0-0.54c-4.84,0-4.84,0-4.84,0
	c-5.77,12.73-5.77,12.73-5.77,12.73L4.81,47.46z M39.78,48c0.74,0.04,1.26,0.18,1.58,0.35c0.35,0.23,0.58,0.49,0.67,0.84
	c0.11,0.37,0.16,0.96,0.16,1.82c0,5.26,0,5.26,0,5.26c0,1.19-0.05,2.05-0.14,2.61c-0.09,0.56-0.3,1.09-0.7,1.61
	c-0.37,0.54-0.96,0.96-1.75,1.33c-0.79,0.33-1.67,0.51-2.63,0.51c-1.23,0-2.21-0.26-2.96-0.79c-0.74-0.51-1.18-1.12-1.33-1.84
	c-0.18-0.7-0.25-1.89-0.25-3.58c0-4.84,0-4.84,0-4.84c0-1.28,0.05-2.09,0.12-2.42c0.09-0.35,0.23-0.58,0.47-0.68
	c0.25-0.14,0.77-0.19,1.54-0.19c0.32,0,0.32,0,0.32,0c0-0.54,0-0.54,0-0.54c-7.23,0-7.23,0-7.23,0c0,0.54,0,0.54,0,0.54
	c0.37,0,0.37,0,0.37,0c0.79,0,1.32,0.05,1.56,0.19s0.39,0.39,0.46,0.74c0.07,0.37,0.11,1.16,0.11,2.37c0,4.81,0,4.81,0,4.81
	c0,1.58,0,1.58,0,1.58c0,1.23,0.21,2.21,0.61,2.96c0.42,0.72,1.12,1.33,2.09,1.79c0.98,0.47,2.17,0.7,3.58,0.7
	c1.21,0,2.23-0.18,3.16-0.53c0.89-0.39,1.61-0.86,2.1-1.47c0.51-0.63,0.81-1.25,0.91-1.88c0.12-0.65,0.16-1.6,0.16-2.93
	c0-5.12,0-5.12,0-5.12c0-0.93,0.05-1.54,0.11-1.88c0.09-0.33,0.32-0.61,0.65-0.89c0.35-0.25,0.88-0.4,1.58-0.44
	c0-0.54,0-0.54,0-0.54c-5.3,0-5.3,0-5.3,0V48z M52.91,49c0.3-0.49,0.63-0.77,0.98-0.88c0.35-0.09,1.05-0.12,2.07-0.12
	c2.33,0,2.33,0,2.33,0c0,10.86,0,10.86,0,10.86c0,1.28-0.04,2.1-0.11,2.44c-0.09,0.37-0.25,0.63-0.51,0.79
	c-0.26,0.16-0.72,0.25-1.4,0.25c-0.81,0-0.81,0-0.81,0c0,0.53,0,0.53,0,0.53c7.87,0,7.87,0,7.87,0c0-0.53,0-0.53,0-0.53
	c-0.77,0-0.77,0-0.77,0c-0.7,0-1.17-0.09-1.44-0.26c-0.25-0.19-0.42-0.47-0.47-0.84c-0.05-0.39-0.09-1.17-0.09-2.37
	c0-10.86,0-10.86,0-10.86c2.54,0,2.54,0,2.54,0c0.86,0,1.47,0.04,1.82,0.14s0.7,0.39,1.02,0.84c0.3,0.44,0.54,1.17,0.72,2.19
	c0.51,0,0.51,0,0.51,0c-0.07-3.72-0.07-3.72-0.07-3.72c-15.36,0-15.36,0-15.36,0c-0.07,3.72-0.07,3.72-0.07,3.72
	c0.53,0,0.53,0,0.53,0C52.38,50.19,52.6,49.47,52.91,49 M85.85,48c0.74,0.04,1.26,0.18,1.58,0.35c0.33,0.23,0.56,0.49,0.67,0.84
	c0.09,0.37,0.16,0.96,0.16,1.82c0,5.26,0,5.26,0,5.26c0,1.19-0.05,2.05-0.14,2.61c-0.09,0.56-0.33,1.09-0.7,1.61
	c-0.39,0.54-0.98,0.96-1.77,1.33c-0.79,0.33-1.67,0.51-2.63,0.51c-1.23,0-2.21-0.26-2.95-0.79c-0.74-0.51-1.17-1.12-1.35-1.84
	c-0.16-0.7-0.25-1.89-0.25-3.58c0-4.84,0-4.84,0-4.84c0-1.28,0.05-2.09,0.14-2.42c0.09-0.35,0.23-0.58,0.47-0.68
	c0.25-0.14,0.75-0.19,1.54-0.19c0.3,0,0.3,0,0.3,0c0-0.54,0-0.54,0-0.54c-7.21,0-7.21,0-7.21,0c0,0.54,0,0.54,0,0.54
	c0.35,0,0.35,0,0.35,0c0.81,0,1.32,0.05,1.56,0.19c0.23,0.14,0.39,0.39,0.47,0.74c0.07,0.37,0.11,1.16,0.11,2.37
	c0,4.81,0,4.81,0,4.81c-0.02,1.58-0.02,1.58-0.02,1.58c0,1.23,0.23,2.21,0.63,2.96c0.42,0.72,1.1,1.33,2.09,1.79
	c0.96,0.47,2.17,0.7,3.58,0.7c1.18,0,2.23-0.18,3.16-0.53c0.89-0.39,1.6-0.86,2.1-1.47c0.51-0.63,0.81-1.25,0.91-1.88
	c0.09-0.65,0.16-1.6,0.16-2.93c0-5.12,0-5.12,0-5.12c0-0.93,0.05-1.54,0.11-1.88c0.09-0.33,0.3-0.61,0.65-0.89
	c0.35-0.25,0.88-0.4,1.58-0.44c0-0.54,0-0.54,0-0.54c-5.3,0-5.3,0-5.3,0V48z M107.12,60.01c0.35,0.84,0.53,1.33,0.53,1.51
	c0,0.32-0.14,0.53-0.4,0.65c-0.28,0.11-0.79,0.16-1.56,0.16c0,0.53,0,0.53,0,0.53c6.23,0,6.23,0,6.23,0c0-0.53,0-0.53,0-0.53
	c-0.54-0.05-0.96-0.18-1.25-0.39c-0.28-0.21-0.51-0.49-0.65-0.86c-0.74-1.61-0.74-1.61-0.74-1.61C104,47.25,104,47.25,104,47.25
	c-0.46,0-0.46,0-0.46,0c-4.58,10.68-4.58,10.68-4.58,10.68c-0.35,0.77-0.53,1.19-0.58,1.33c-0.47,1.19-0.89,1.98-1.23,2.37
	c-0.35,0.35-0.88,0.6-1.58,0.7c0,0.53,0,0.53,0,0.53c4.72,0,4.72,0,4.72,0c0-0.53,0-0.53,0-0.53c-0.51,0-0.91-0.11-1.25-0.35
	c-0.33-0.25-0.49-0.6-0.49-1.05c0-0.44,0.32-1.35,0.93-2.77c0.39-0.96,0.39-0.96,0.39-0.96c6.02,0,6.02,0,6.02,0L107.12,60.01z
	 M100.1,56.68c2.77-6.58,2.77-6.58,2.77-6.58c2.81,6.58,2.81,6.58,2.81,6.58H100.1z M130.92,58.31c-0.33,1.25-0.72,2.12-1.14,2.68
	c-0.44,0.56-0.88,0.93-1.37,1.09c-0.46,0.16-1.18,0.25-2.14,0.25c-1.21,0-1.21,0-1.21,0c-0.91,0-1.51-0.07-1.77-0.25
	c-0.28-0.14-0.46-0.35-0.51-0.63c-0.05-0.28-0.11-0.98-0.11-2.09c0-8.07,0-8.07,0-8.07c0-1.28,0.05-2.09,0.14-2.42
	c0.09-0.35,0.23-0.58,0.47-0.68c0.25-0.14,0.75-0.19,1.53-0.19c0.7,0,0.7,0,0.7,0c0-0.54,0-0.54,0-0.54c-7.59,0-7.59,0-7.59,0
	c0,0.54,0,0.54,0,0.54c0.35,0,0.35,0,0.35,0c0.81,0,1.32,0.05,1.56,0.19c0.23,0.14,0.39,0.39,0.47,0.74
	c0.07,0.37,0.11,1.16,0.11,2.37c0,7.56,0,7.56,0,7.56c0,1.28-0.04,2.1-0.11,2.44c-0.09,0.37-0.25,0.63-0.51,0.79
	c-0.26,0.16-0.74,0.25-1.4,0.25c-0.47,0-0.47,0-0.47,0c0,0.53,0,0.53,0,0.53c13.43,0,13.43,0,13.43,0c0.12-4.54,0.12-4.54,0.12-4.54
	H130.92z M150.47,49c0.32-0.49,0.63-0.77,0.98-0.88c0.35-0.09,1.05-0.12,2.05-0.12c2.35,0,2.35,0,2.35,0c0,10.86,0,10.86,0,10.86
	c0,1.28-0.04,2.1-0.11,2.44c-0.07,0.37-0.25,0.63-0.51,0.79c-0.26,0.16-0.72,0.25-1.4,0.25c-0.81,0-0.81,0-0.81,0
	c0,0.53,0,0.53,0,0.53c7.87,0,7.87,0,7.87,0c0-0.53,0-0.53,0-0.53c-0.77,0-0.77,0-0.77,0c-0.7,0-1.19-0.09-1.46-0.26
	c-0.23-0.19-0.4-0.47-0.46-0.84c-0.07-0.39-0.09-1.17-0.09-2.37c0-10.86,0-10.86,0-10.86c2.54,0,2.54,0,2.54,0
	c0.86,0,1.47,0.04,1.82,0.14c0.37,0.11,0.7,0.39,1,0.84c0.32,0.44,0.56,1.17,0.75,2.19c0.47,0,0.47,0,0.47,0
	c-0.05-3.72-0.05-3.72-0.05-3.72c-15.35,0-15.35,0-15.35,0c-0.09,3.72-0.09,3.72-0.09,3.72c0.53,0,0.53,0,0.53,0
	C149.95,50.19,150.16,49.47,150.47,49 M188.14,62.33c-0.91-0.02-1.74-0.28-2.4-0.77c-0.7-0.49-1.65-1.51-2.84-3.07
	c-1.46-1.95-2.54-3.05-3.19-3.37c1.47-0.18,2.61-0.6,3.35-1.33c0.77-0.7,1.14-1.54,1.14-2.58c0-0.84-0.28-1.6-0.86-2.21
	c-0.58-0.61-1.35-1.07-2.3-1.35c-0.95-0.25-2.17-0.4-3.68-0.4c-0.88,0-2.09,0.05-3.6,0.11c-2.24,0.11-2.24,0.11-2.24,0.11
	c0,0.54,0,0.54,0,0.54c0.26,0,0.26,0,0.26,0c0.81,0,1.33,0.05,1.58,0.19c0.23,0.14,0.39,0.39,0.46,0.74
	c0.07,0.37,0.11,1.16,0.11,2.37c0,7.56,0,7.56,0,7.56c0,1.28-0.04,2.1-0.11,2.44c-0.07,0.37-0.25,0.63-0.51,0.79
	c-0.26,0.16-0.72,0.25-1.4,0.25c-0.51,0-0.51,0-0.51,0c0,0.53,0,0.53,0,0.53c7.56,0,7.56,0,7.56,0c0-0.53,0-0.53,0-0.53
	c-0.75,0-0.75,0-0.75,0c-0.7,0-1.19-0.09-1.46-0.26c-0.25-0.19-0.39-0.47-0.46-0.84c-0.07-0.37-0.09-1.16-0.09-2.37
	c0-3.42,0-3.42,0-3.42c0.63,0,0.63,0,0.63,0c0.42,0,0.75,0.07,0.95,0.21c0.19,0.14,0.56,0.51,1.09,1.16c0.56,0.63,1.05,1.32,1.56,2
	c1.56,2.19,2.72,3.54,3.47,4.05c4.24,0,4.24,0,4.24,0V62.33z M176.2,47.88c0.37-0.04,0.7-0.05,0.98-0.05c1.86,0,3.09,0.35,3.65,0.98
	c0.54,0.67,0.82,1.51,0.82,2.6c0,0.63-0.09,1.14-0.25,1.56c-0.18,0.42-0.39,0.77-0.67,1.05c-0.3,0.25-0.67,0.44-1.12,0.56
	c-0.46,0.16-0.98,0.25-1.63,0.26c-0.61,0.05-1.19,0.07-1.79,0.07V47.88z M203.65,48c0.72,0.04,1.25,0.18,1.58,0.35
	c0.32,0.23,0.54,0.49,0.65,0.84c0.11,0.37,0.16,0.96,0.16,1.82c0,5.26,0,5.26,0,5.26c0,1.19-0.05,2.05-0.14,2.61
	c-0.09,0.56-0.32,1.09-0.7,1.61c-0.39,0.54-0.96,0.96-1.75,1.33c-0.79,0.33-1.67,0.51-2.63,0.51c-1.25,0-2.21-0.26-2.95-0.79
	c-0.75-0.51-1.19-1.12-1.37-1.84c-0.14-0.7-0.21-1.89-0.21-3.58c0-4.84,0-4.84,0-4.84c0-1.28,0.02-2.09,0.11-2.42
	c0.09-0.35,0.25-0.58,0.49-0.68c0.23-0.14,0.74-0.19,1.53-0.19c0.32,0,0.32,0,0.32,0c0-0.54,0-0.54,0-0.54c-7.23,0-7.23,0-7.23,0
	c0,0.54,0,0.54,0,0.54c0.35,0,0.35,0,0.35,0c0.82,0,1.35,0.05,1.56,0.19c0.25,0.14,0.4,0.39,0.49,0.74
	c0.05,0.37,0.11,1.16,0.11,2.37c0,4.81,0,4.81,0,4.81c-0.02,1.58-0.02,1.58-0.02,1.58c0,1.23,0.21,2.21,0.63,2.96
	c0.42,0.72,1.09,1.33,2.09,1.79c0.96,0.47,2.16,0.7,3.56,0.7c1.19,0,2.24-0.18,3.16-0.53c0.89-0.39,1.6-0.86,2.1-1.47
	c0.51-0.63,0.81-1.25,0.93-1.88c0.11-0.65,0.14-1.6,0.14-2.93c0-5.12,0-5.12,0-5.12c0-0.93,0.05-1.54,0.12-1.88
	c0.09-0.33,0.28-0.61,0.63-0.89c0.35-0.25,0.88-0.4,1.58-0.44c0-0.54,0-0.54,0-0.54c-5.28,0-5.28,0-5.28,0V48z M216.89,62.68
	c0.12-0.63,0.32-1.12,0.56-1.49c1.16,1.32,2.61,1.95,4.35,1.95c1.51,0,2.7-0.4,3.61-1.25c0.89-0.82,1.35-1.89,1.35-3.19
	c0-0.86-0.19-1.58-0.56-2.21c-0.39-0.65-0.86-1.14-1.49-1.49c-0.61-0.37-1.6-0.84-2.96-1.42c-1.42-0.63-2.4-1.19-2.96-1.68
	c-0.54-0.49-0.81-1.09-0.81-1.81c0-0.58,0.23-1.12,0.67-1.61c0.44-0.49,1.1-0.75,2.05-0.75c0.98,0,1.86,0.33,2.61,1
	c0.74,0.68,1.26,1.6,1.58,2.77c0.49,0,0.49,0,0.49,0c0-4.03,0-4.03,0-4.03c-0.49,0-0.49,0-0.49,0c-0.05,0.49-0.26,0.95-0.61,1.37
	c-0.61-0.68-1.23-1.1-1.82-1.32c-0.6-0.21-1.23-0.32-1.88-0.32c-1.21,0-2.19,0.35-2.98,1.09c-0.77,0.74-1.18,1.63-1.18,2.74
	c0,0.74,0.18,1.39,0.56,2.03c0.35,0.63,0.84,1.16,1.51,1.56c0.63,0.39,1.6,0.84,2.84,1.39c1.44,0.6,2.42,1.12,2.96,1.67
	c0.53,0.51,0.79,1.14,0.79,1.93c0,0.75-0.32,1.46-0.91,2.07c-0.6,0.61-1.47,0.91-2.58,0.91c-2.47,0-4.05-1.61-4.7-4.84
	c-0.58,0-0.58,0-0.58,0c0,4.95,0,4.95,0,4.95H216.89z M235.2,49c0.32-0.49,0.65-0.77,1-0.88c0.35-0.09,1.02-0.12,2.03-0.12
	c2.35,0,2.35,0,2.35,0c0,10.86,0,10.86,0,10.86c0,1.28-0.04,2.1-0.12,2.44c-0.05,0.37-0.23,0.63-0.49,0.79
	c-0.25,0.16-0.74,0.25-1.4,0.25c-0.82,0-0.82,0-0.82,0c0,0.53,0,0.53,0,0.53c7.89,0,7.89,0,7.89,0c0-0.53,0-0.53,0-0.53
	c-0.75,0-0.75,0-0.75,0c-0.74,0-1.21-0.09-1.46-0.26c-0.26-0.19-0.42-0.47-0.47-0.84c-0.07-0.39-0.09-1.17-0.09-2.37
	c0-10.86,0-10.86,0-10.86c2.54,0,2.54,0,2.54,0c0.84,0,1.46,0.04,1.84,0.14c0.35,0.11,0.67,0.39,0.98,0.84
	c0.33,0.44,0.56,1.17,0.74,2.19c0.51,0,0.51,0,0.51,0c-0.09-3.72-0.09-3.72-0.09-3.72c-15.35,0-15.35,0-15.35,0
	c-0.09,3.72-0.09,3.72-0.09,3.72c0.54,0,0.54,0,0.54,0C234.65,50.19,234.9,49.47,235.2,49"/>
</svg>
