<?xml version="1.0" ?><!-- Uploaded to: SVG Repo, www.svgrepo.com, Generator: SVG Repo Mixer Tools -->
<svg fill="#000000" width="800px" height="800px" viewBox="0 0 24 24" id="Layer_1" version="1.1" xml:space="preserve" xmlns="http://www.w3.org/2000/svg" xmlns:xlink="http://www.w3.org/1999/xlink"><path d="M12,2C9.54,2,7.17,2.9,5.33,4.55c-0.41,0.37-0.45,1-0.08,1.41c0.37,0.41,1,0.45,1.41,0.08C8.13,4.72,10.03,4,12,4  c4.41,0,8,3.59,8,8s-3.59,8-8,8c-1.97,0-3.87-0.72-5.33-2.04c-0.41-0.37-1.04-0.33-1.41,0.08c-0.37,0.41-0.33,1.04,0.08,1.41  C7.17,21.1,9.54,22,12,22c5.51,0,10-4.49,10-10C22,6.49,17.51,2,12,2z"/><path d="M3,17h3c0.55,0,1-0.45,1-1h0.76l1.79,0.89C9.69,16.96,9.84,17,10,17h6c0.5,0,0.92-0.37,0.99-0.86l-0.08-7  c0.04-0.29-0.04-0.58-0.23-0.8C16.49,8.13,16.21,8,15.92,8H13V6c0-0.55-0.45-1-1-1h-1c-0.27,0-0.52,0.11-0.71,0.29L7.59,8H7  c0-0.55-0.45-1-1-1H3C2.45,7,2,7.45,2,8v8C2,16.55,2.45,17,3,17z M8,10c0.27,0,0.52-0.11,0.71-0.29L11,7.41V9c0,0.55,0.45,1,1,1  h3.13v5h-4.9l-1.79-0.89C8.31,14.04,8.16,14,8,14H7v-4H8z M4,9h1v5v1H4V9z"/></svg>